<svg xmlns="http://www.w3.org/2000/svg" width="16" height="17" fill="none"><g stroke="#F79D5B" stroke-linecap="round" stroke-linejoin="round" clip-path="url(#a)"><path d="M13.333 5.833H2.667A.667.667 0 0 0 2 6.5v1.333c0 .368.298.667.667.667h10.666A.667.667 0 0 0 14 7.833V6.5a.667.667 0 0 0-.667-.667ZM8 5.833V14.5"/><path d="M12.667 8.5v4.667a1.333 1.333 0 0 1-1.333 1.333H4.667a1.334 1.334 0 0 1-1.333-1.333V8.5M5 5.833A1.667 1.667 0 1 1 5 2.5c.643-.011 1.274.3 1.809.895.535.595.95 1.445 1.191 2.438.241-.993.657-1.843 1.192-2.438.535-.594 1.165-.906 1.808-.895a1.667 1.667 0 0 1 0 3.333"/></g><defs><clipPath id="a"><path fill="#fff" d="M0 .5h16v16H0z"/></clipPath></defs></svg>