<svg xmlns="http://www.w3.org/2000/svg" width="64" height="64" fill="none"><g clip-path="url(#a)"><path stroke="#fff" stroke-linecap="round" stroke-linejoin="round" stroke-width="3" d="M18.667 48c-3.328 0-6.519-1.264-8.871-3.515C7.443 42.235 6.12 39.183 6.12 36s1.322-6.235 3.675-8.485c2.352-2.25 5.543-3.515 8.87-3.515.787-3.5 3.085-6.577 6.392-8.553a15.922 15.922 0 0 1 5.4-1.996 16.595 16.595 0 0 1 5.838.016 15.903 15.903 0 0 1 5.387 2.025c1.631.987 3.03 2.253 4.116 3.726a12.758 12.758 0 0 1 2.218 4.86c.378 1.736.372 3.522-.017 5.255h2.667a9.333 9.333 0 1 1 0 18.667h-32Z"/></g><defs><clipPath id="a"><path fill="#fff" d="M0 0h64v64H0z"/></clipPath></defs></svg>