<svg xmlns="http://www.w3.org/2000/svg" width="64" height="64" fill="none"><g stroke="#fff" stroke-linecap="round" stroke-linejoin="round" stroke-width="3" clip-path="url(#a)"><path d="M32 5.333v17.334l8 4.586M26.667 10.667 32 13.333l5.333-2.666H26.667ZM55.094 18.667l-15.011 8.666.028 9.222m7.698-19.84.357 5.952 4.976 3.285-5.333-9.238ZM55.094 45.333l-15.011-8.666L32.11 41.3m21.03-3.253-4.975 3.285-.357 5.953 5.333-9.238ZM32 58.667V41.333l-8-4.586m13.333 16.586L32 50.667l-5.333 2.666h10.666ZM8.906 45.333l15.011-8.666-.028-9.222m-7.698 19.84-.357-5.952-4.976-3.285 5.333 9.237ZM8.906 18.667l15.011 8.666L31.89 22.7m-21.03 3.253 4.975-3.285.358-5.953-5.334 9.238Z"/></g><defs><clipPath id="a"><path fill="#fff" d="M0 0h64v64H0z"/></clipPath></defs></svg>