<svg width="24" height="24" viewBox="0 0 24 24" fill="none" xmlns="http://www.w3.org/2000/svg">
<g clip-path="url(#clip0_2_56)">
<path d="M11.9207 3.96914C12.9754 3.95872 14.0217 4.15613 15.0001 4.5501L11.9207 3.96914ZM11.9207 3.96914C10.8661 3.97956 9.82384 4.19761 8.85347 4.61083M11.9207 3.96914L8.85347 4.61083M8.85347 4.61083C7.8831 5.02405 7.00362 5.62435 6.26524 6.37746M8.85347 4.61083L6.26524 6.37746M6.26524 6.37746C5.52687 7.13058 4.94406 8.02175 4.5501 9.00009M6.26524 6.37746L4.5501 9.00009M4.5501 9.00009C3.75445 10.976 3.77629 13.187 4.61083 15.1467M4.5501 9.00009V9.00009C4.17207 10.7331 4.1391 12.5237 4.45306 14.2695L4.61083 15.1467M4.61083 15.1467C5.44537 17.1065 7.02423 18.6544 9.00009 19.4501L8.74668 19.2808C7.10999 18.1877 5.70462 16.783 4.61083 15.1467V15.1467ZM9.00009 15.0001V20.0001H4.00009" stroke="white" stroke-width="1.5" stroke-linecap="round" stroke-linejoin="round"/>
<path d="M18.3701 7.15991V7.16991" stroke="white" stroke-width="1.5" stroke-linecap="round" stroke-linejoin="round"/>
<path d="M13 19.9399V19.9499" stroke="white" stroke-width="1.5" stroke-linecap="round" stroke-linejoin="round"/>
<path d="M16.8401 18.3701V18.3801" stroke="white" stroke-width="1.5" stroke-linecap="round" stroke-linejoin="round"/>
<path d="M19.3701 15.1001V15.1101" stroke="white" stroke-width="1.5" stroke-linecap="round" stroke-linejoin="round"/>
<path d="M19.9399 11V11.01" stroke="white" stroke-width="1.5" stroke-linecap="round" stroke-linejoin="round"/>
</g>
<defs>
<clipPath id="clip0_2_56">
<rect width="24" height="24" fill="white"/>
</clipPath>
</defs>
</svg>
