<svg xmlns="http://www.w3.org/2000/svg" width="24" height="24" fill="none"><g stroke="#fff" stroke-linecap="round" stroke-linejoin="round" stroke-width="1.5" clip-path="url(#a)"><path d="M11.92 3.97a8.031 8.031 0 0 1 3.08.58l-3.08-.58Zm0 0a8.031 8.031 0 0 0-3.067.64m3.068-.64-3.068.64m0 0a8.031 8.031 0 0 0-2.588 1.767m2.588-1.766L6.265 6.377m0 0A8.031 8.031 0 0 0 4.55 9m1.715-2.623L4.55 9m0 0a8.031 8.031 0 0 0 .06 6.147M4.55 9v0a13.507 13.507 0 0 0-.097 5.27l.158.877m0 0A8.031 8.031 0 0 0 9 19.45l-.254-.17a14.986 14.986 0 0 1-4.136-4.133v0ZM9 15v5H4M18.37 7.16v.01M13 19.94v.01M16.84 18.37v.01M19.37 15.1v.01M19.94 11v.01"/></g><defs><clipPath id="a"><path fill="#fff" d="M0 0h24v24H0z"/></clipPath></defs></svg>