<svg xmlns="http://www.w3.org/2000/svg" width="64" height="64" fill="none"><g stroke="#fff" stroke-linecap="round" stroke-linejoin="round" stroke-width="3" clip-path="url(#a)"><path d="M32 42.667c5.891 0 10.667-4.776 10.667-10.667S37.89 21.333 32 21.333 21.333 26.11 21.333 32 26.11 42.667 32 42.667ZM16.8 47.2l-1.867 1.867M8 32h2.667H8ZM32 8v2.667V8Zm21.333 24H56h-2.667ZM32 53.333V56v-2.667Zm-17.067-38.4L16.8 16.8l-1.867-1.867Zm34.134 0L47.2 16.8l1.867-1.867ZM47.2 47.2l1.867 1.867L47.2 47.2Z"/></g><defs><clipPath id="a"><path fill="#fff" d="M0 0h64v64H0z"/></clipPath></defs></svg>