<svg width="160" height="48" viewBox="0 0 160 48" fill="none" xmlns="http://www.w3.org/2000/svg">
<rect width="160" height="48" rx="7" fill="#4651D2"/>
<g clip-path="url(#clip0_4_107)">
<path d="M45.9207 15.9691C46.9754 15.9587 48.0217 16.1561 49.0001 16.5501L45.9207 15.9691ZM45.9207 15.9691C44.8661 15.9796 43.8238 16.1976 42.8535 16.6108M45.9207 15.9691L42.8535 16.6108M42.8535 16.6108C41.8831 17.024 41.0036 17.6244 40.2652 18.3775M42.8535 16.6108L40.2652 18.3775M40.2652 18.3775C39.5269 19.1306 38.9441 20.0217 38.5501 21.0001M40.2652 18.3775L38.5501 21.0001M38.5501 21.0001C37.7544 22.976 37.7763 25.187 38.6108 27.1467M38.5501 21.0001V21.0001C38.1721 22.7331 38.1391 24.5237 38.4531 26.2695L38.6108 27.1467M38.6108 27.1467C39.4454 29.1065 41.0242 30.6544 43.0001 31.4501L42.7467 31.2808C41.11 30.1877 39.7046 28.783 38.6108 27.1467V27.1467ZM43.0001 27.0001V32.0001H38.0001" stroke="white" stroke-width="1.5" stroke-linecap="round" stroke-linejoin="round"/>
<path d="M52.3701 19.1599V19.1699" stroke="white" stroke-width="1.5" stroke-linecap="round" stroke-linejoin="round"/>
<path d="M47 31.9399V31.9499" stroke="white" stroke-width="1.5" stroke-linecap="round" stroke-linejoin="round"/>
<path d="M50.8401 30.3701V30.3801" stroke="white" stroke-width="1.5" stroke-linecap="round" stroke-linejoin="round"/>
<path d="M53.3701 27.1001V27.1101" stroke="white" stroke-width="1.5" stroke-linecap="round" stroke-linejoin="round"/>
<path d="M53.9399 23V23.01" stroke="white" stroke-width="1.5" stroke-linecap="round" stroke-linejoin="round"/>
</g>
<path d="M71.168 30L68.752 26.56C68.4533 26.5813 68.2187 26.592 68.048 26.592H65.28V30H63.68V18.8H68.048C69.4987 18.8 70.64 19.1467 71.472 19.84C72.304 20.5333 72.72 21.488 72.72 22.704C72.72 23.568 72.5067 24.304 72.08 24.912C71.6533 25.52 71.0453 25.9627 70.256 26.24L72.912 30H71.168ZM68 25.232C69.0133 25.232 69.7867 25.0133 70.32 24.576C70.8533 24.1387 71.12 23.5147 71.12 22.704C71.12 21.8933 70.8533 21.2747 70.32 20.848C69.7867 20.4107 69.0133 20.192 68 20.192H65.28V25.232H68ZM82.745 25.808C82.745 25.9253 82.7343 26.08 82.713 26.272H75.833C75.929 27.0187 76.2543 27.6213 76.809 28.08C77.3743 28.528 78.073 28.752 78.905 28.752C79.9183 28.752 80.7343 28.4107 81.353 27.728L82.201 28.72C81.817 29.168 81.337 29.5093 80.761 29.744C80.1957 29.9787 79.561 30.096 78.857 30.096C77.961 30.096 77.1663 29.9147 76.473 29.552C75.7797 29.1787 75.241 28.6613 74.857 28C74.4837 27.3387 74.297 26.592 74.297 25.76C74.297 24.9387 74.4783 24.1973 74.841 23.536C75.2143 22.8747 75.721 22.3627 76.361 22C77.0117 21.6267 77.7423 21.44 78.553 21.44C79.3637 21.44 80.0837 21.6267 80.713 22C81.353 22.3627 81.849 22.8747 82.201 23.536C82.5637 24.1973 82.745 24.9547 82.745 25.808ZM78.553 22.736C77.817 22.736 77.1983 22.96 76.697 23.408C76.2063 23.856 75.9183 24.4427 75.833 25.168H81.273C81.1877 24.4533 80.8943 23.872 80.393 23.424C79.9023 22.9653 79.289 22.736 78.553 22.736ZM87.9819 19.296C87.0645 19.296 86.6059 19.792 86.6059 20.784V21.52H89.0699V22.784H86.6379V30H85.1019V22.784H83.6619V21.52H85.1019V20.768C85.1019 19.9253 85.3472 19.2587 85.8379 18.768C86.3285 18.2773 87.0165 18.032 87.9019 18.032C88.2432 18.032 88.5632 18.0747 88.8619 18.16C89.1605 18.2453 89.4165 18.368 89.6299 18.528L89.1659 19.696C88.8139 19.4293 88.4192 19.296 87.9819 19.296ZM93.2718 22.944C93.5384 22.4533 93.9331 22.08 94.4557 21.824C94.9784 21.568 95.6131 21.44 96.3598 21.44V22.928C96.2744 22.9173 96.1571 22.912 96.0078 22.912C95.1758 22.912 94.5198 23.1627 94.0398 23.664C93.5704 24.1547 93.3358 24.8587 93.3358 25.776V30H91.7998V21.52H93.2718V22.944ZM105.839 25.808C105.839 25.9253 105.828 26.08 105.807 26.272H98.9268C99.0228 27.0187 99.3481 27.6213 99.9028 28.08C100.468 28.528 101.167 28.752 101.999 28.752C103.012 28.752 103.828 28.4107 104.447 27.728L105.295 28.72C104.911 29.168 104.431 29.5093 103.855 29.744C103.289 29.9787 102.655 30.096 101.951 30.096C101.055 30.096 100.26 29.9147 99.5668 29.552C98.8734 29.1787 98.3348 28.6613 97.9508 28C97.5774 27.3387 97.3908 26.592 97.3908 25.76C97.3908 24.9387 97.5721 24.1973 97.9348 23.536C98.3081 22.8747 98.8148 22.3627 99.4548 22C100.105 21.6267 100.836 21.44 101.647 21.44C102.457 21.44 103.177 21.6267 103.807 22C104.447 22.3627 104.943 22.8747 105.295 23.536C105.657 24.1973 105.839 24.9547 105.839 25.808ZM101.647 22.736C100.911 22.736 100.292 22.96 99.7908 23.408C99.3001 23.856 99.0121 24.4427 98.9268 25.168H104.367C104.281 24.4533 103.988 23.872 103.487 23.424C102.996 22.9653 102.383 22.736 101.647 22.736ZM110.404 30.096C109.71 30.096 109.044 30.0053 108.404 29.824C107.764 29.632 107.262 29.392 106.9 29.104L107.54 27.888C107.913 28.1547 108.366 28.368 108.9 28.528C109.433 28.688 109.972 28.768 110.516 28.768C111.86 28.768 112.532 28.384 112.532 27.616C112.532 27.36 112.441 27.1573 112.26 27.008C112.078 26.8587 111.849 26.752 111.572 26.688C111.305 26.6133 110.921 26.5333 110.42 26.448C109.737 26.3413 109.177 26.2187 108.74 26.08C108.313 25.9413 107.945 25.7067 107.636 25.376C107.326 25.0453 107.172 24.5813 107.172 23.984C107.172 23.216 107.492 22.6027 108.132 22.144C108.772 21.6747 109.63 21.44 110.708 21.44C111.273 21.44 111.838 21.5093 112.404 21.648C112.969 21.7867 113.433 21.9733 113.796 22.208L113.14 23.424C112.446 22.976 111.63 22.752 110.692 22.752C110.041 22.752 109.545 22.8587 109.204 23.072C108.862 23.2853 108.692 23.568 108.692 23.92C108.692 24.1973 108.788 24.416 108.98 24.576C109.172 24.736 109.406 24.8533 109.684 24.928C109.972 25.0027 110.372 25.088 110.884 25.184C111.566 25.3013 112.116 25.4293 112.532 25.568C112.958 25.696 113.321 25.92 113.62 26.24C113.918 26.56 114.068 27.008 114.068 27.584C114.068 28.352 113.737 28.9653 113.076 29.424C112.425 29.872 111.534 30.096 110.404 30.096ZM120.515 21.44C121.593 21.44 122.446 21.7547 123.075 22.384C123.715 23.0027 124.035 23.9147 124.035 25.12V30H122.499V25.296C122.499 24.4747 122.302 23.856 121.907 23.44C121.513 23.024 120.947 22.816 120.211 22.816C119.379 22.816 118.723 23.0613 118.243 23.552C117.763 24.032 117.523 24.7253 117.523 25.632V30H115.987V18.128H117.523V22.72C117.843 22.3147 118.259 22 118.771 21.776C119.294 21.552 119.875 21.44 120.515 21.44Z" fill="white"/>
<defs>
<clipPath id="clip0_4_107">
<rect width="24" height="24" fill="white" transform="translate(34 12)"/>
</clipPath>
</defs>
</svg>
